<svg id="Layer_1" data-name="Layer 1" xmlns="http://www.w3.org/2000/svg" xmlns:xlink="http://www.w3.org/1999/xlink" viewBox="0 0 578.8 626.5"><defs><style>.cls-1{fill:#4d8b33;}.cls-2{fill:#c7ca7f;}.cls-3{fill:#5c9e33;}.cls-4{fill:#518330;}.cls-5{fill:#6c9f44;}.cls-6{fill:#61a23e;}.cls-7{fill:url(#linear-gradient);}.cls-8{fill:url(#linear-gradient-2);}.cls-9{fill:url(#linear-gradient-3);}.cls-10{fill:url(#linear-gradient-4);}.cls-11{fill:url(#linear-gradient-5);}.cls-12{fill:#4790cc;}.cls-13{fill:#285173;}.cls-14{fill:#6a75ba;}.cls-15{fill:#545d94;}.cls-16{fill:#eea886;}.cls-17{fill:#483a8f;}.cls-18{fill:#2e334d;}.cls-19{fill:#5f4dbd;}.cls-20{fill:#fff;}.cls-21{fill:#a77860;}.cls-22{fill:#c2c2c2;}.cls-23{fill:#eea987;}.cls-24{fill:#e8734d;}.cls-25{fill:#272a45;}.cls-26{fill:#323657;}.cls-27{fill:#ebdbdb;}.cls-28{fill:#de9e7e;}.cls-29{fill:#eb4747;}.cls-30{fill:#8c6e4f;}.cls-31{fill:#face87;}.cls-32{fill:url(#linear-gradient-6);}.cls-33{fill:#f0b24e;}.cls-34{fill:url(#linear-gradient-7);}.cls-35{fill:url(#linear-gradient-8);}.cls-36{fill:url(#linear-gradient-9);}.cls-37{fill:url(#linear-gradient-10);}.cls-38{fill:url(#linear-gradient-11);}.cls-39{fill:url(#linear-gradient-12);}.cls-40{fill:url(#linear-gradient-13);}.cls-41{fill:url(#linear-gradient-14);}.cls-42{fill:url(#linear-gradient-15);}.cls-43{fill:#959c4d;}.cls-44{fill:#cf433e;}.cls-45{fill:#875835;}.cls-46{fill:#eebba2;}.cls-47{fill:#3f74a0;}.cls-48{fill:#5b83c2;}.cls-49{fill:#eddad3;}.cls-50{fill:#163342;}.cls-51{fill:#1f2136;}.cls-52{fill:#5e8fdf;}.cls-53{fill:#486eab;}.cls-54{fill:#689ff7;}.cls-55{fill:#878787;}.cls-56{fill:#202338;}.cls-57{fill:#db4242;}.cls-58{fill:#665249;}.cls-59{fill:#db9c7c;}</style><linearGradient id="linear-gradient" x1="2330.42" y1="-680.91" x2="2427.23" y2="-680.91" gradientTransform="matrix(0.84, 0.3, -0.23, 0.66, -1832.1, 72.75)" gradientUnits="userSpaceOnUse"><stop offset="0" stop-color="#3076a1"/><stop offset="1" stop-color="#639c38"/></linearGradient><linearGradient id="linear-gradient-2" x1="2365.76" y1="-656.37" x2="2519.18" y2="-656.37" xlink:href="#linear-gradient"/><linearGradient id="linear-gradient-3" x1="2286.86" y1="-654.81" x2="2385.11" y2="-654.81" xlink:href="#linear-gradient"/><linearGradient id="linear-gradient-4" x1="739.87" y1="1639.6" x2="756.88" y2="1542.34" gradientTransform="matrix(0.87, 0.06, 0.06, 0.72, -396.5, -783.42)" xlink:href="#linear-gradient"/><linearGradient id="linear-gradient-5" x1="294.16" y1="557.02" x2="298.21" y2="311.48" gradientUnits="userSpaceOnUse"><stop offset="0.24" stop-color="#ebe3d8"/><stop offset="0.26" stop-color="#e7e0d6"/><stop offset="1" stop-color="#e6bfa6"/></linearGradient><linearGradient id="linear-gradient-6" x1="221.66" y1="446.92" x2="207.66" y2="482.11" gradientUnits="userSpaceOnUse"><stop offset="0" stop-color="#face87"/><stop offset="1" stop-color="#faba52"/></linearGradient><linearGradient id="linear-gradient-7" x1="153.34" y1="447.19" x2="227.27" y2="447.19" gradientUnits="userSpaceOnUse"><stop offset="0" stop-color="#962656"/><stop offset="0.99" stop-color="#ff6e30"/></linearGradient><linearGradient id="linear-gradient-8" x1="219.24" y1="424.49" x2="247.43" y2="424.49" xlink:href="#linear-gradient-7"/><linearGradient id="linear-gradient-9" x1="-3193.53" y1="1958.65" x2="-3181.16" y2="1958.65" gradientTransform="matrix(0.91, -0.42, 0.42, 0.91, 2266.17, -2714.53)" xlink:href="#linear-gradient-7"/><linearGradient id="linear-gradient-10" x1="-3199.59" y1="1960.78" x2="-3181.16" y2="1960.78" gradientTransform="matrix(0.91, -0.42, 0.42, 0.91, 2266.17, -2714.53)" xlink:href="#linear-gradient-7"/><linearGradient id="linear-gradient-11" x1="-3202.87" y1="1966.55" x2="-3188.43" y2="1952.44" gradientTransform="matrix(0.91, -0.42, 0.42, 0.91, 2266.17, -2714.53)" xlink:href="#linear-gradient-7"/><linearGradient id="linear-gradient-12" x1="-3177.21" y1="1958.65" x2="-3164.83" y2="1958.65" gradientTransform="matrix(0.91, -0.42, 0.42, 0.91, 2266.17, -2714.53)" xlink:href="#linear-gradient-7"/><linearGradient id="linear-gradient-13" x1="-3177.21" y1="1960.78" x2="-3158.78" y2="1960.78" gradientTransform="matrix(0.91, -0.42, 0.42, 0.91, 2266.17, -2714.53)" xlink:href="#linear-gradient-7"/><linearGradient id="linear-gradient-14" x1="-3179.23" y1="1966.91" x2="-3179.61" y2="1962.24" gradientTransform="matrix(0.91, -0.42, 0.42, 0.91, 2266.17, -2714.53)" xlink:href="#linear-gradient-7"/><linearGradient id="linear-gradient-15" x1="-9978.9" y1="658.8" x2="-9965.01" y2="658.8" gradientTransform="matrix(0.26, -0.97, 0.97, 0.26, 2139.58, -9302.35)" gradientUnits="userSpaceOnUse"><stop offset="0" stop-color="#eb4747"/><stop offset="1" stop-color="#eb7947"/></linearGradient></defs><title>first</title><path class="cls-1" d="M267,320.38s-20.32-24.83-28.45-36.12,17.05,52.81,19.14,59.59S268.33,356.51,267,320.38Z" transform="translate(-0.32 -1)"/><path class="cls-2" d="M263.54,336.06c-4.79-8.71-52.1-55.41-52.1-55.41.45,14.45,29.8,48.77,29.8,48.77S268.33,344.77,263.54,336.06Z" transform="translate(-0.32 -1)"/><path class="cls-3" d="M286.39,357.78c-54.63-20.14-106.11-9.67-106.11-9.67,7.53,10.34,79,9.67,79,9.67Z" transform="translate(-0.32 -1)"/><path class="cls-4" d="M274.93,359.55c-27.77-30.24-93.23-44.81-93.23-44.81,19.34,19.75,47.11,37.07,47.11,37.07S302.7,389.79,274.93,359.55Z" transform="translate(-0.32 -1)"/><path class="cls-5" d="M280.52,356.24c-16.25-30.07-78.14-59.79-78.14-59.79,0,9.49,50.15,53.6,50.15,53.6S296.78,386.31,280.52,356.24Z" transform="translate(-0.32 -1)"/><path class="cls-6" d="M278.8,354.11a39.11,39.11,0,0,0,.63-14.14c-2.15-16.09-9.63-65.89-20.58-73.44,0,0-5,64.53,5.42,86.23C272,369,276.69,363,278.8,354.11Z" transform="translate(-0.32 -1)"/><path class="cls-7" d="M317.72,413.34s12.37-5.41,15.9-17.25S339.41,368,349,363.79s29.74-15.35,30.35-29.37-29.66-30.71-22.68-34.19,19.59-12.76,7.22-20.37-18.94-8.95-22.2-19.23-15.2-15.56-17.86.07-10.07,19.18-8.48,32.22,9.06,25.3-11.84,28.18-13.33,17-8.69,27.3,5.75,50.92,7.13,58S309.17,418.08,317.72,413.34Z" transform="translate(-0.32 -1)"/><path class="cls-8" d="M312.44,420.42s28.4-10.67,37.24-8.73,25.24,6.64,31.73-.75,11.76-32.33,32.54-29.5,28.45-2.13,27.28-14.55,32.53-31.19,26.47-38-52,5.66-65.64,10.41-26.85-6.17-34.4,7.06-32.77,24.51-41.15,22.22-15.14-3.47-17.22,9.1-10.56,20.26-12.8,28.06S291.27,419.17,312.44,420.42Z" transform="translate(-0.32 -1)"/><path class="cls-9" d="M291.65,275.54c-1-7.68-14.24-11.27-16.32-1.63s2.74,22.4-15.46,33.58,9.56,24.48,16.36,37.95,5.56,28.24,11.21,39.92,4.28,34.35,14.11,29.2,6.68-17.52,12.37-31.06,24.61-16.68,11.94-31.19-27.62-22.89-15.28-41.13C316,303.14,294.74,299.45,291.65,275.54Z" transform="translate(-0.32 -1)"/><path class="cls-10" d="M295.2,412.67s9.83-9.16,4.85-28.9-14.47-20.34,15.54-23.54,18.22-50.93,41.8-48.11,64.74-53.1,78.52-39.24S416.67,309.61,425.26,323s6,25.7-21.85,26.51,1.18,51.91-35.94,51.2S324.52,446.77,295.2,412.67Z" transform="translate(-0.32 -1)"/><path class="cls-11" d="M194.19,356.76l298.36-1.87s113.12,4.56,80.74,71.86S523.38,504,543.61,526.68s45.19,128-127.81,94.19S109.1,560.69,70,587.41s-103.23-81.74-9.09-111.16S5.23,360.68,194.19,356.76Z" transform="translate(-0.32 -1)"/><polygon class="cls-12" points="529.4 389.18 485.39 597.74 55.81 597.74 178.59 389.18 529.4 389.18"/><polygon class="cls-13" points="515.9 394.16 474.9 588.46 74.69 588.46 189.08 394.16 515.9 394.16"/><path class="cls-14" d="M81.78,499.8s-5.68-10.43-8.91-14.19-14-6.56-12.51-11.36,15.84-2.71,19.81,2,16,6.36,16.47,8.34-4.2,12.83-6.79,14.6S81.78,499.8,81.78,499.8Z" transform="translate(-0.32 -1)"/><path class="cls-15" d="M57.63,508.63s-9.25-7.34-13.71-9.5-15.43-.48-16-5.46,13.46-8.78,19-6.05,17.26-.54,18.43,1.11,1.24,13.44-.43,16.1S57.63,508.63,57.63,508.63Z" transform="translate(-0.32 -1)"/><path class="cls-16" d="M78.19,527.73s4-27.63,3.85-32.42c-.05-1.37,8.32-.86,7.93,1.77-.85,5.73,3,27.94,2.34,32S77.84,530.3,78.19,527.73Z" transform="translate(-0.32 -1)"/><path class="cls-16" d="M65.53,535.68S58,508.85,56.19,504.39c-.78-2,6.93-5.07,8-1.52C65.81,508.42,78,527.31,79,531.31S66.23,538.16,65.53,535.68Z" transform="translate(-0.32 -1)"/><path class="cls-17" d="M70.78,554.32S62.65,526.9,61.4,524l12.82-7.92s6,17.51,6.78,21.89S70.78,554.32,70.78,554.32Z" transform="translate(-0.32 -1)"/><path class="cls-18" d="M297.78,481.87s-12.38,3.14-18.27,12.5-11,20.15-22.06,25-11.14,17.51-10.28,19.45S282,579,289.46,580.51s21.32.45,19.83-9.37-16-31-7.87-41.62S311.65,509,311.65,509Z" transform="translate(-0.32 -1)"/><path class="cls-16" d="M295.62,527.6a4.88,4.88,0,0,0-1-.18,7,7,0,0,0-2.89.35,6.82,6.82,0,0,0-1.14.56c-2.94,1.74-9.9,6.44-10.84,6.56s-.17-16.12-.17-16.12,3.7-6.56,4.17-10.88S295.62,527.6,295.62,527.6Z" transform="translate(-0.32 -1)"/><path class="cls-19" d="M208.51,544.57S194.9,535,179,538s-17.67,10.43-23.14,10.77S132,547.54,117,551.92s-27.68,4.85-29.4,3.6S97,529.25,97,525.81L78.39,521s-5.31,22.2-7.4,27.21c-2.23,5.35-6.51,15.43-.41,24.19s23.14,4.81,33.46,6.57,56.52.64,64.59.2c8.76-.46,35.19-1.72,35.19-1.72Z" transform="translate(-0.32 -1)"/><path class="cls-16" d="M320.26,495.13s.86,13.44-2.12,17.47a19,19,0,0,1-2.55,3,6,6,0,0,0-1.7,2.47c-.92,2.58-1.49,6.22-2.22,7s-3.12-1.31-4-1.32-9,7.07-11,5.62-13.9-13.57-12.9-21.88,4.67-20.71,18.12-20.64S319.23,491.79,320.26,495.13Z" transform="translate(-0.32 -1)"/><path class="cls-20" d="M279.61,559.27c-.25.56-5.2,8.45-10.62,13-2.24,1.91-4.57,3.24-6.68,3.24l-1.89,0c-6.21.17-11,1.12-19.38,1.54-8.72.44-29.87-.78-30.5-.78s-6.72,1.09-6.72,1.09c-2.19-2.65,3.59-32.68,4.69-32.84s8.13,2.5,14.86,1.41,9.38-1.72,19.39-13.45,20-14.7,24.24-13.76,12.61,0,12.61,0S280,558.49,279.61,559.27Z" transform="translate(-0.32 -1)"/><path class="cls-18" d="M314.6,504.75s2.51,6.5,3.84,7.39c0,0,4.84-5.11,1.73-17.74s-14.82-13.81-22.39-12.53c-9.42,1.6-18.9,33.46-18.41,36.56s11-16.46,20.29-14.89S309,505.63,314.6,504.75Z" transform="translate(-0.32 -1)"/><path class="cls-21" d="M294.65,527.42a7,7,0,0,0-2.89.35,6.82,6.82,0,0,0-1.14.56c-2.16-3.37-4.16-11.37-4.23-11.64C287.83,521.07,294.65,527.42,294.65,527.42Z" transform="translate(-0.32 -1)"/><path class="cls-22" d="M269,572.3c-2.24,1.91-4.57,3.24-6.68,3.24l-1.89,0,3.07-24.89Z" transform="translate(-0.32 -1)"/><path class="cls-16" d="M280.22,548.21s.77,19.61,1.17,22.9,0,5.21,3.5,5.52S313,579.76,320.48,581s10.34-1.69,11.69-2.11,9.87-.68,12.4.16,6.1,3,8.29,3.28,5.21,1.54,5,2.58-5.06.89-6.52.89-24.78-.63-25.93-.06c-1.46.73-20.3,1.67-23.75,1.67s-30.75,2.14-33.15-1.2-5.47-37.74-5.16-39.3S278.53,544.55,280.22,548.21Z" transform="translate(-0.32 -1)"/><path class="cls-20" d="M281.44,548.64s.94-26.13-7.56-25.8c-10.74.4-12.35,13.55-10.9,27.83C263,550.67,279,550.83,281.44,548.64Z" transform="translate(-0.32 -1)"/><path class="cls-23" d="M445.92,469.89s2.58-.51,1.87,4.85-6.43,12.62-9.29,13.57-8.93,1.43-8.57,4.77,6.19,3.45,11.19,2.62,19.47-7.39,24.36-11.2,10.35-9.47,8.21-12.09S459,460,457.91,459,445.92,469.89,445.92,469.89Z" transform="translate(-0.32 -1)"/><path class="cls-23" d="M468.12,336.23s-6.24.81-10.86,20.61S438.51,404,438.51,404l9.24,5.15s13.33-20.86,14.65-23.63,7.13-21,7.26-26.53S468.12,336.23,468.12,336.23Z" transform="translate(-0.32 -1)"/><path class="cls-24" d="M468.12,336.23s-9,0-15,28.17l14.43,4S474.62,341.85,468.12,336.23Z" transform="translate(-0.32 -1)"/><path class="cls-23" d="M381.11,476.41a10.38,10.38,0,0,0-1.05,6.33c.53,3.7.53,9.86-9,9.16s-26.4,1.16-32.39.05-8.53.17-9.06-1.55.59-4.23,5.28-4.16,16.57-6.2,21-7.26S368,473.92,368,473.92Z" transform="translate(-0.32 -1)"/><path class="cls-25" d="M393,396.71s-13.28,6.16-13.81,11.62,3.31,13.91,5.62,15.32,20.6,20.24,28.17,24.28,31.33,25.17,31.33,25.17L460.56,457S403.79,397.77,393,396.71Z" transform="translate(-0.32 -1)"/><path class="cls-24" d="M497.05,320.26s-2,9.92,2.05,12.95c2.92,2.2,14.53,10.43,17.3,16.51s5.28,20.85,3.3,29.17-8.14,25.61-11.26,33.27-9.6,23.76-9.6,23.76l-37.49-23.76s5.81-23.37,5.67-30.63-5.09-37.46-4.3-41.16,15.26-7.29,16.45-8.61,3.7-4,2.51-6.73S497.05,320.26,497.05,320.26Z" transform="translate(-0.32 -1)"/><path class="cls-26" d="M461.35,412.16s-.53,2.37-2.11,2.37-13.72-9.49-17.56-12-27.86-18.22-34.46-16.76S394,392.22,393,396.71s-12.27,40.66-16,49.77-11.62,27.06-11.62,27.06l19.41,6.74s10-24.29,16-32.48,11.36-27.59,11.36-30.63,7,.67,9.11,5.15S444.05,451.5,449.6,454s27.19,7.39,35,.92,14.26-19,14.26-19S474.05,416.78,461.35,412.16Z" transform="translate(-0.32 -1)"/><path class="cls-23" d="M470.13,361.9s-16.17,8.85-19.21,10.35-8.14,1.93-12.81,1.93-38.19,3.35-41.62,5.2-9.16,3.34-11.45,7.74-2.37,26.14-1.4,28.78,2.38,3.81,2.73,2.7,8-23.34,8.7-25.74,8.82-6.85,10.44-6.65,45.13,3.57,52.93,3.2,28.34-10,28.34-10S481.91,357.62,470.13,361.9Z" transform="translate(-0.32 -1)"/><path class="cls-24" d="M514.29,352.09c-2.11-3.39-4.49-10.43-18.49-6.07s-25.67,15.88-25.67,15.88,15.32,15.44,15.59,21.25c0,0,29.62-11.83,30.55-17.29S515.61,354.23,514.29,352.09Z" transform="translate(-0.32 -1)"/><path class="cls-23" d="M489.32,287.31s-18-8.94-19.49,16.08,2.62,28,15.32,25.86S500.57,311.5,503,304.11,495.33,289.05,489.32,287.31Z" transform="translate(-0.32 -1)"/><path class="cls-27" d="M499.05,316.18s.77-6.65-1.93-7.55-4.54,2.78-4.54,2.78l-2.21-.36s2.71-6.53.24-8.35-18.39-2.17-20.13-4.65,2.58-15.65,7-16.51,16.49-2.28,23.24,5.17c0,0,6.11,3.45,5.81,8.77S501.69,312.81,499.05,316.18Z" transform="translate(-0.32 -1)"/><path class="cls-23" d="M494.29,305.47c1.06-2.11,5.71-1.33,4.86,2.1s-5.29,8.36-6.73,7.19S492.83,308.37,494.29,305.47Z" transform="translate(-0.32 -1)"/><path class="cls-23" d="M500.2,334c-1.46,3.41-16.32,13.84-21.25,10.05s-1-11.69-1-11.69a6,6,0,0,0,.67-.57,8.69,8.69,0,0,0,1.5-2,11.18,11.18,0,0,0,1-2.36l16.34-8a57.47,57.47,0,0,0-.43,10.35C497.22,330.51,500.2,334,500.2,334Z" transform="translate(-0.32 -1)"/><path class="cls-21" d="M492.78,325.61a13.82,13.82,0,0,1-14.12,6.21,8.69,8.69,0,0,0,1.5-2h0S488,330.28,492.78,325.61Z" transform="translate(-0.32 -1)"/><path class="cls-28" d="M447.12,563a6,6,0,0,1-.79,2.46,31,31,0,0,0-6.74-.81c.36-2.19,2-4.91.59-4.4-1,.38-5.24,2.9-10,5.37-6,1.18-11.86,3.09-18.57,3.72-2.37-1.59-3.6-4.1-3.62-5.37-.06-9.22,12.36-9.12,22.1-10.17s9-3.39,13.92-3.39S447.68,558,447.12,563Z" transform="translate(-0.32 -1)"/><path class="cls-23" d="M451,561.84c-4.69-1.45-4.69,1-14.3-.89-2.89-.58-6-1.32-9-1.84a15.38,15.38,0,0,0-2.08-9.33c-5.14-8.71-17-7-24.13-4.25s-11.39,3-14.51,2.68-4.58-3.12-2.46-4.69,17.42-15.3,1.67-27.25-25,1.68-25.91,5.25a14.57,14.57,0,0,1-2.23,5.25s-2.79,2.12-4,2.24.45,2.79,1,3.79-.55,6.48.67,10.39,4.81,4.35,9.5,5.14c4.42.73,6.56,5,7.63,7.49-1.07,3.53-2,7.91-2.5,8.36-.66.67-7.87,1.75-9.43,2.81s-8.65.2-10.1,3.66,1.52,6.61,5.54,5.94,7.08-2.89,8.42-3.56,14.51-1.14,15.74-1.7c.8-.36,1.72-2.25,2.74-4.71a24.29,24.29,0,0,0,7.19,4.26c1.74.88,14.44,1.38,24.84.31a8.7,8.7,0,0,0,5.21,2.26c6.81.67,21.89-3.23,23.9-3.35s-3.24,4-2.12,6.15,5.92,3.12,7.93-1.46S455.7,563.29,451,561.84Z" transform="translate(-0.32 -1)"/><path class="cls-29" d="M427.77,559.12s-8.25-2.83-11.72,2.2c-2,2.89-1.37,8-.74,9.87a53.78,53.78,0,0,1-11.36.6c2.65-10.48.39-27.22.39-27.22C429.26,537.45,427.77,559.12,427.77,559.12Z" transform="translate(-0.32 -1)"/><path class="cls-30" d="M366.24,514A9,9,0,0,1,375,510.8c5.53,1.18,17,6.33,18.17,16,1.35,11.55-9.62,18.61-9.62,18.61s-8-6.2-10.44-14.16S368.06,522.11,366.24,514Z" transform="translate(-0.32 -1)"/><path class="cls-23" d="M376.68,532.75c1.66-.83,4.47.67,3.08,3.74s-5.59,4.74-6.48,2.12S375.46,533.36,376.68,532.75Z" transform="translate(-0.32 -1)"/><path class="cls-31" d="M250.7,461.13H179l-.07-1.6c0-1-.86-24.07,12.15-37.65,6-6.27,14-9.45,23.76-9.45s17.74,3.18,23.76,9.45c13,13.58,12.19,36.68,12.15,37.65Zm-68.43-3.34h65.16c-.07-5.38-1.1-23-11.25-33.6-5.36-5.59-12.53-8.42-21.33-8.42s-16,2.84-21.34,8.43C183.35,434.8,182.33,452.42,182.27,457.79Z" transform="translate(-0.32 -1)"/><path class="cls-32" d="M227,499.57H201.68c-31,0-26-44.2-26-44.2H253S258,499.57,227,499.57Z" transform="translate(-0.32 -1)"/><path class="cls-33" d="M227,499.57H201.68c-31,0-26-44.2-26-44.2h28S201.25,499.57,227,499.57Z" transform="translate(-0.32 -1)"/><path class="cls-34" d="M221,414.72s12,2.73,2.77,14.38-67.46,25-63,50.56l-2-4.71-5.46,4.71s-1-22.55,35.7-36.19,35.4-24.2,30.6-27.62Z" transform="translate(-0.32 -1)"/><path class="cls-35" d="M220.42,413.34s22.07,1.87,27,18.48l-4.13,3.83s.2-14.83-24.06-21.17Z" transform="translate(-0.32 -1)"/><path class="cls-36" d="M216.84,413.34s-7.28-.27-12.11-2.14a8.6,8.6,0,0,1-3.4-2.13,3,3,0,0,1-.7-2.71s.28-.41,1.55-.29c1.88.18,5.91,1.51,14.35,7.07A3.28,3.28,0,0,1,216.84,413.34Z" transform="translate(-0.32 -1)"/><path class="cls-37" d="M216.84,413.34l.75,2.47s-9.79,9.63-16,6l-.27-.17a5.62,5.62,0,0,1-1.41-1.33c-3.45-4.64.76-13.92.76-13.92a1.47,1.47,0,0,0,.62,1.13,8.32,8.32,0,0,0,1.7,1.14C207.44,411,216.84,413.34,216.84,413.34Z" transform="translate(-0.32 -1)"/><path class="cls-38" d="M203,408.63a8.58,8.58,0,0,0-1.45,5.08c.3,2.55.77,4.62.08,5.76a3.88,3.88,0,0,0-.3,2.14,5.62,5.62,0,0,1-1.41-1.33,6.89,6.89,0,0,1-.44-3.11c.33-3.21,1-5.74.76-6.73-.18-.75.64-2.25,1.06-2.95a8.32,8.32,0,0,0,1.7,1.14Z" transform="translate(-0.32 -1)"/><path class="cls-39" d="M220.42,411.67s4.46-5.77,6.12-10.67a8.59,8.59,0,0,0,.55-4,3,3,0,0,0-1.63-2.28s-.5,0-1.22,1c-1.07,1.55-2.63,5.5-3.78,15.54C220.44,411.42,220.43,411.55,220.42,411.67Z" transform="translate(-0.32 -1)"/><path class="cls-40" d="M220.42,411.67l1.41,2.16s13.67-1.35,14.87-8.49c0-.11,0-.21,0-.32a5.62,5.62,0,0,0-.11-1.93c-1.35-5.62-11.17-8.34-11.17-8.34a1.5,1.5,0,0,1,.47,1.21,9,9,0,0,1-.22,2C224.67,403,220.42,411.67,220.42,411.67Z" transform="translate(-0.32 -1)"/><path class="cls-41" d="M216.4,413.55s.13-1.13.68-1,.62-1.09,1.4-1,.31-1,1.31-.73a4.13,4.13,0,0,1,2.3,3.33c-.06,1.25-.91.18-1.08.51s-.23,1.44-1.37,1.13-1.71,1.56-2,.67A13.14,13.14,0,0,1,216.4,413.55Z" transform="translate(-0.32 -1)"/><path class="cls-42" d="M184.17,496.75s-3.1,6.36,3.65,8.16,37.85,4,38.79,3.16c-.37-1.24-28.47-14.78-35.21-16.58S184.17,496.75,184.17,496.75Z" transform="translate(-0.32 -1)"/><path class="cls-43" d="M184.17,496.75s-.8-2.64-2.08-2.64-.08,1.72-2.75.45-2.56-3.41-4.22-1.67-7.32.61-6,1.86,4.29.55,5.68,1,.25,1.32,2.53,1.49A44.47,44.47,0,0,0,184.17,496.75Z" transform="translate(-0.32 -1)"/><polygon class="cls-44" points="188.56 497.27 187.65 500.69 187.46 500.64 188.37 497.22 188.56 497.27"/><polygon class="cls-44" points="194.09 492.92 193.17 496.34 192.99 496.29 193.9 492.87 194.09 492.92"/><polygon class="cls-44" points="197.37 499.62 196.45 503.04 196.27 502.98 197.18 499.56 197.37 499.62"/><polygon class="cls-44" points="202.28 497.76 201.36 501.18 201.18 501.13 202.09 497.71 202.28 497.76"/><polygon class="cls-44" points="207.7 501.52 206.78 504.94 206.6 504.89 207.51 501.47 207.7 501.52"/><path class="cls-45" d="M203.49,4.55s61.13,196.19,63.84,255.07l3.59-1.61S265.37,189.44,203.49,4.55Z" transform="translate(-0.32 -1)"/><path class="cls-46" d="M179.28,145.64,151.46,182s-3.08,4.64-8.2,14.37c-6.7,12.72-12.7,26.75-12.7,26.75s3.69,4.41,6.2,2.94c4.07-2.37,25.41-34.08,25.63-36.51s22-24.26,22-24.26S184.28,147.06,179.28,145.64Z" transform="translate(-0.32 -1)"/><path class="cls-26" d="M176,138.81l-5.24,42.57-4.08,33.18s-21.26,5.65-20.52-10.38a135.44,135.44,0,0,1,3.18-22.8c4.19-18.95,11.3-35.3,14.66-39.42C168.72,136.23,176,138.81,176,138.81Z" transform="translate(-0.32 -1)"/><path class="cls-29" d="M170.8,181.38l-4.08,33.18s-22.05,5.72-21.32-10.31c.35-7.61,2.21-15.48,4-22.87Z" transform="translate(-0.32 -1)"/><path class="cls-47" d="M123.26,351.1a11.14,11.14,0,0,0,1.44,6.5c1.92,3.72,10.55,13.19,10,17.08s-10.57,3.44-16.83-3.42-15.57-14-15.23-15.6,9.74-10.2,13-11.33S123.26,351.1,123.26,351.1Z" transform="translate(-0.32 -1)"/><path class="cls-47" d="M258.49,356.9a42.56,42.56,0,0,0,9.42,2.78c4.42.6,15-1.15,18.07,1.75S282.49,372.72,272.7,374s-22.34,3.32-23.56,2-2.24-13.05-1.23-16.58S258.49,356.9,258.49,356.9Z" transform="translate(-0.32 -1)"/><path class="cls-46" d="M192.27,131.4s0,8,1.19,11.08-17-5.46-17-5.46,1.68-9.35-.28-14.77S192.27,131.4,192.27,131.4Z" transform="translate(-0.32 -1)"/><path class="cls-26" d="M238,276.39l-22.38,14.94S211,288,205.41,283.86c-1.35-1-2.76-2.11-4.16-3.2-4.68-3.67-9.29-7.54-11.67-10.3-6-6.94,7.14-50.82,23.76-31.25C213.34,239.11,233.62,264.82,238,276.39Z" transform="translate(-0.32 -1)"/><path class="cls-26" d="M212,233.91s-8.75,45.6-19,61.94c0,0-20.22-3.75-28.26-6.9,0,0,.23-34.43,1-43.5C166.43,237,212,233.91,212,233.91Z" transform="translate(-0.32 -1)"/><path class="cls-48" d="M218.37,232.7c-.49,1.58-2.2,8.55-3.84,8.65l-48.83,4.1s2.31-37.87-1.34-58c-2.43-13.35,1.09-35,9.09-46.72a28.21,28.21,0,0,1,3-3.75s16.94,5.23,17.78,5.4a25,25,0,0,1,4.19,4.43h0c4.6,5.63,11.4,15.85,12.05,25.76,1,14.67,8.28,24.72,9.55,41.26C220.78,223.51,220.2,226.73,218.37,232.7Z" transform="translate(-0.32 -1)"/><path class="cls-46" d="M248,205.44a1,1,0,0,1-.42.39,22,22,0,0,1-5.22,1.75c-10.36,2.59-31.88,5.66-38.22,4.5-8.33-1.52-24.9-38.85-24.9-38.85l15.2-9.62L207,188.93a12.54,12.54,0,0,0,5.35,5.53c2.46,1.31,5.74,2.72,8.58,2.82,5.49.18,13.15.23,18.71.24h7.15S249.06,203,248,205.44Z" transform="translate(-0.32 -1)"/><polygon class="cls-46" points="257.04 350.5 258.17 355.9 247.59 358.41 245.99 352.85 257.04 350.5"/><polygon class="cls-46" points="126.38 346.43 122.86 350.23 114.92 343.47 118.57 339.24 126.38 346.43"/><path class="cls-46" d="M246.44,197.52a10.8,10.8,0,0,0,3.64-3.88c1.07-2.3,5.45-3.24,7.5-2.44s4.57-.46,5.37,1-1.57,3.28-1.29,4.58,2.07,7.33-2.81,8.89-9.17-.35-11.67.47S246.44,197.52,246.44,197.52Z" transform="translate(-0.32 -1)"/><path class="cls-26" d="M238,276.39s4.25,11.78,14.36,50.45c0,0,5.85,21.4,6.85,23.83s-18,6.62-18.08,4.06-20.24-53.64-25.51-63.4C211,282.73,238,276.39,238,276.39Z" transform="translate(-0.32 -1)"/><path class="cls-26" d="M193.45,294.89c-6.1,13.67-65.37,54-65.37,54s-4.13-2.53-7.55-5.05c-.71-.53-1.39-1.05-2-1.55a15.58,15.58,0,0,1-1.86-1.74c-2.47-2.85,12.39-17.05,12.39-17.05,33.39-38.55,35.72-43.37,35.72-43.37s3.6.15,9.06.9c.79.11,1.6.22,2.42.36C186.4,283.05,197.15,286.59,193.45,294.89Z" transform="translate(-0.32 -1)"/><path class="cls-49" d="M202.82,175.33l-20.87,9s-.61-1.45-1.4-3.69l20.88-9.33C202.35,173.66,202.82,175.33,202.82,175.33Z" transform="translate(-0.32 -1)"/><path class="cls-48" d="M198.44,146.85a139.6,139.6,0,0,1-25-6.08,28.21,28.21,0,0,1,3-3.75s16.94,5.23,17.78,5.4A25,25,0,0,1,198.44,146.85Z" transform="translate(-0.32 -1)"/><path class="cls-46" d="M197.78,105.47s4.62,7.83,4.63,9.47-2,1.65-.93,3.37,3.15,4.93,2.13,6-3.44.53-3.94,2.77-3.32,9-6.43,9-13.77-5.39-14.48-7.58-4.76-14.41-6-16.76,21.17-13.69,23.12-10Z" transform="translate(-0.32 -1)"/><path class="cls-50" d="M197.36,104.68s3.34-1.62,2.15-4.93-4-7.69-10.55-5.58-11.46,6.56-16,7.29-5.55,5.12-1.59,13.3S177.07,127,177.07,127s1.25-7,3-6.78,4.47-4.38,4.47-4.38L185,117l3-.2s-4-8.58-1.86-9.66S197,105.63,197.36,104.68Z" transform="translate(-0.32 -1)"/><path class="cls-50" d="M188,116.81s2,7.33,3.69,7.41,7.37,1,8.43,1.86a1.54,1.54,0,0,1,.48,1.7c-.35,1.06-1.35,7.41.66,9.51,0,0-1.43,2.27-8.63-.25a34.77,34.77,0,0,1-11-5.93s5.16-9.82,3.31-14.1Z" transform="translate(-0.32 -1)"/><path class="cls-46" d="M184.49,114.56a3.79,3.79,0,0,0-5.9-1.21c-2.77,2,.91,8.68,3.78,8.54S186.05,118,184.49,114.56Z" transform="translate(-0.32 -1)"/><path class="cls-26" d="M196.61,163.35c-1.58-7.23-6.75-12.83-14.58-15.78a29.82,29.82,0,0,0-11.51-1.93c-.42.85-.82,1.81-1.2,2.71a14.67,14.67,0,0,1,2.49-.22,27.44,27.44,0,0,1,9.3,1.76c4,1.53,11.13,5.36,13,14a10.68,10.68,0,0,1-2,9.08c-5.74,7.79-20.87,11.38-28.09,12.68.08.64.18,1.27.29,1.87,0,.2.07.4.1.6,7.53-1.33,23.43-5.08,29.78-13.7A13.2,13.2,0,0,0,196.61,163.35Z" transform="translate(-0.32 -1)"/><path class="cls-48" d="M202.82,175.33l-20.87,9s-.61-1.45-1.4-3.69c-2.24-6.36-5.91-19.08-1.14-23,11.42-9.39,19.06,5.94,22,13.69C202.35,173.66,202.82,175.33,202.82,175.33Z" transform="translate(-0.32 -1)"/><path class="cls-46" d="M140,222.21s-1.62,3.46.36,5.41a14.82,14.82,0,0,1,3,5.47c.4,1.21,3.23,4.81,1.49,4.92s-5-5.8-5.91-7-2.47,4.09-3.73,4.7-12.39-4-10.8-7.41,6.16-5.11,6.41-5.76,2-4.58,2-4.58Z" transform="translate(-0.32 -1)"/><path class="cls-46" d="M135.82,235.05s-5.79,10-6.93,10.32-1.87-.15-1.38-1.12,5.21-9.91,5.21-9.91-9.55,10.47-10.38,10.87c-.49.24-1.92-.51-1.73-1.06s8.82-11.52,8.82-11.52-8.94,9.75-9.81,9.89-1.93-.81-1.34-1.58,8.17-10.35,8.17-10.35-7.15,6.65-8.07,6.39c-.56-.17-1.82-.78.1-2.43s5.86-6.06,5.86-6.06Z" transform="translate(-0.32 -1)"/><path class="cls-51" d="M205.41,283.86c-1.35-1-3.9-3-5.3-4.09,0,0,5.65-13.63,7.7-23.57C207.81,256.2,210,270.26,205.41,283.86Z" transform="translate(-0.32 -1)"/><path class="cls-52" d="M257,226.1a8.85,8.85,0,1,1,4.45-11.69A8.86,8.86,0,0,1,257,226.1Z" transform="translate(-0.32 -1)"/><rect class="cls-53" x="246.42" y="216.7" width="2.03" height="19.44" transform="translate(163.59 -99.41) rotate(33.12)"/><path class="cls-52" d="M243.46,237.46a3.22,3.22,0,1,1,1.62-4.25A3.2,3.2,0,0,1,243.46,237.46Z" transform="translate(-0.32 -1)"/><path class="cls-54" d="M254.25,220a2.16,2.16,0,1,1,1.09-2.86A2.15,2.15,0,0,1,254.25,220Z" transform="translate(-0.32 -1)"/><path class="cls-45" d="M115.8,75.62c-12.72,0-27.34-3.67-44.15-11.05-44-19.31-62.21-3.4-62.39-3.23h0c.75-.74,17.91-18.72,63.29,1.19,26,11.4,46.47,13.8,62.69,7.34,13.95-5.56,24.64-17.54,32.69-36.63,8.15-19.34,16.86-30.11,25.89-32a9.55,9.55,0,0,1,9.67,3.31h0a14,14,0,0,0-9.27-1.12C188.55,4.65,179.74,11,170,34.1c-8.29,19.67-19.39,32.05-33.92,37.83A54,54,0,0,1,115.8,75.62Z" transform="translate(-0.32 -1)"/><path class="cls-55" d="M9.27,60.49a.85.85,0,0,0-.86.86.87.87,0,0,0,.1.39c-3.66,3.18-6.16,4.81-7.34,3.49s.74-3,.74-3c-1,.5-2.57,2.33-.72,3.72,1.59,1.2,6-2.43,7.61-3.85a.82.82,0,0,0,.47.15.86.86,0,1,0,0-1.72Z" transform="translate(-0.32 -1)"/><path class="cls-16" d="M369.65,204.87s4-2.31,4.52-2.65,2.25-.33,4.23-.14a11.42,11.42,0,0,1,4.74,1.63,1.72,1.72,0,0,1,.36,1.41,3.36,3.36,0,0,1-.67,1.56,2,2,0,0,1-.38,1.92,1.78,1.78,0,0,1-.71,1.85,1.48,1.48,0,0,1-.51,1.55s-1.59.14-2.37.17a47.85,47.85,0,0,1-7.59-1.23S366.69,210.54,369.65,204.87Z" transform="translate(-0.32 -1)"/><path class="cls-26" d="M315.15,230.1a48.52,48.52,0,0,1-3.74,16.12s-7.32,3-10.85-1.56c-1.39-1.8-2.6-7.87-3.11-15.6-.79-11.91.08-27.78,4.54-38.16C302,190.9,316.39,207.87,315.15,230.1Z" transform="translate(-0.32 -1)"/><path class="cls-49" d="M315.15,230.1a48.52,48.52,0,0,1-3.74,16.12s-7.32,3-10.85-1.56c-1.39-1.8-2.6-7.87-3.11-15.6Z" transform="translate(-0.32 -1)"/><path class="cls-45" d="M473.33,95.69S369.73,211.58,349.4,251.27l-2-2.23S372.76,203.57,473.33,95.69Z" transform="translate(-0.32 -1)"/><path class="cls-52" d="M367,231.44a6.69,6.69,0,1,0,.61-9.45A6.7,6.7,0,0,0,367,231.44Z" transform="translate(-0.32 -1)"/><rect class="cls-53" x="372.74" y="227.3" width="1.54" height="14.7" transform="translate(777.79 409.37) rotate(171.34)"/><path class="cls-52" d="M372.67,242.93a2.43,2.43,0,1,0,.22-3.43A2.42,2.42,0,0,0,372.67,242.93Z" transform="translate(-0.32 -1)"/><path class="cls-54" d="M370.83,228.1a1.64,1.64,0,1,0,.15-2.31A1.64,1.64,0,0,0,370.83,228.1Z" transform="translate(-0.32 -1)"/><path class="cls-45" d="M403.18,121.43c-1.23,0-2.46-.06-3.7-.18-15.92-1.59-30.31-13.2-38.49-31.06-5.44-11.88-11.9-18.79-19.2-20.54a21.64,21.64,0,0,0-14.28,1.93h0c.28-.22,6.11-6.15,14.76-4.1,8,1.9,15,9.23,20.74,21.78,7.85,17.13,21.56,28.26,36.68,29.77,12.92,1.29,24.83-4.62,33.56-16.64,7.14-9.82,14.83-15,22.84-15.29,10.49-.43,17,8.25,17.24,8.59h0c-.06-.07-7.67-6.78-17.18-6.37-7.28.3-14.38,5.14-21.1,14.38C426.67,115.23,415.46,121.43,403.18,121.43Z" transform="translate(-0.32 -1)"/><path class="cls-55" d="M328.1,71.19a.9.9,0,0,0-1.25-.2.86.86,0,0,0-.27.33c-4.9-1.13-7.8-2.24-7.41-4s3-1.24,3-1.24c-1.05-.56-3.53-.73-3.57,1.67,0,2.06,5.72,3.55,7.88,4a.85.85,0,0,0,.17.48.9.9,0,0,0,1.45-1Z" transform="translate(-0.32 -1)"/><path class="cls-56" d="M348.43,364.21s3.42,3.81,6.88,4.61,5.89,1.81,5.92,4-10,3.63-13.94,1.42c-5.92-3.29-6.52-2.29-7.18-3.94s.79-6,.75-6.57S348.43,364.21,348.43,364.21Z" transform="translate(-0.32 -1)"/><path class="cls-56" d="M313.6,365.2s2.51,3.71,5.87,4.57,5.46,2.45,5.62,4.58-7.81,4.91-13.41,1.17c-3.68-2.45-5.05-2.31-5.79-3.87s.39-5.93.31-6.44S313.6,365.2,313.6,365.2Z" transform="translate(-0.32 -1)"/><path class="cls-56" d="M341.32,361.31s4.77,1.82,6.68.53l.59,2.54a7.07,7.07,0,0,1-4.18.55c-2.64-.33-3.55-1.2-3.55-1.2Z" transform="translate(-0.32 -1)"/><path class="cls-56" d="M306.64,362.23s5.48,2,6.94.44l.24,2.83s-.54.89-2.68.78a22.14,22.14,0,0,1-4.94-1.07Z" transform="translate(-0.32 -1)"/><path class="cls-16" d="M338.3,255.41S344.48,280.64,346,290c1.71,10.94,2,17,2.49,22.64.6,7.13-.81,47.66-.39,49.74s-6.73-1.07-6.73-1.07-6.25-44.42-8-52c-1.66-7.06-7.84-37.49-9.36-35.56s-3.41,35.51-4.53,41.08-5.89,48.54-5.89,48.54-4.76,1.08-6.83-.67c0,0-2.59-36.47-1.88-46.92.28-4-4.66-47.74,1.67-65.36C309.81,241.1,338.3,255.41,338.3,255.41Z" transform="translate(-0.32 -1)"/><path class="cls-26" d="M339,250s5.53,30.62,7,40c1.71,10.94,2,17,2.49,22.64.6,7.13,2.13,47.47,2.14,49.59,0,2.36-11.12.86-11.12.86s-4.39-46.2-6.18-53.79c-1.66-7.06-7.84-37.49-9.36-35.56s-3.41,35.51-4.53,41.08-3.57,50.11-3.57,50.11-9,0-11.05-1.77c0,0-.69-36.94,0-47.39.28-4-4.66-47.74,1.67-65.36C309.81,241.1,339,250,339,250Z" transform="translate(-0.32 -1)"/><path class="cls-57" d="M373.53,211.87s-14.22,5.21-16.77,6c-2,.62-4.47,2.44-9.05-.31a44.51,44.51,0,0,1-7.56-6.59h0c-.61-.62-1.2-1.25-1.77-1.86h0a81.9,81.9,0,0,1-5.64-6.57c-.54-.94-11.29-8.69-3.82-13.91,1.68-1.16,8.13-4,11.81,0,3.22,3.5,4.71,10.06,5.49,11.55.93,1.76,4.93,9.18,4.93,9.18.23.56,5.64-1.06,6.37-1.29,2.15-.64,12.85-4,12.85-4Z" transform="translate(-0.32 -1)"/><path class="cls-23" d="M317.43,172.64h0a33.88,33.88,0,0,0,4.7,5.95c5.89,5.88,17.74,4.57,15.68-13.33a27.74,27.74,0,0,0-2.11-8.22c-3.41-7.64-9.27-8.25-9.27-8.25-4.23.3-11.46,2.26-13.23,8C312,161,314,167.24,317.43,172.64Z" transform="translate(-0.32 -1)"/><path class="cls-58" d="M317.43,172.64h0s.62.09,2.26-4.6c.32-.94.74-.35.88-.76l3.31-1.79s-4.16-5.33.15-7.49,11.67-1,11.67-1c-3.41-7.64-9.27-8.25-9.27-8.25-4.23.3-11.46,2.26-13.23,8C312,161,314,167.24,317.43,172.64Z" transform="translate(-0.32 -1)"/><path class="cls-23" d="M321.27,164.48c-.26-1.2-2.64-2.24-3.65.35s2.37,5.33,3.27,4.76S321.7,166.48,321.27,164.48Z" transform="translate(-0.32 -1)"/><path class="cls-49" d="M313.55,165.64s10.22-9.13,23.62-8c0,0-2.81-16.22-17.32-11.57C306.22,150.44,312.84,163.86,313.55,165.64Z" transform="translate(-0.32 -1)"/><path class="cls-29" d="M320.3,161.24s15.43-.27,22.35-2.64-5.9-2.63-5.9-2.63S330.6,154.85,320.3,161.24Z" transform="translate(-0.32 -1)"/><path class="cls-57" d="M328.79,184.42s8.57,1.76,9.68,2.74,3.61,11.65,3.74,14.51-.61,14.64-1.82,19.09-1.1,25.68-.34,31.84c0,0-17.73,4.26-36.29,1.84,0,0,2.9-22.23,2.16-28.33-.95-7.8-4-24.82-4-24.82s.23-11.8,1.88-13.2,14.45-3.67,14.45-3.67Z" transform="translate(-0.32 -1)"/><path class="cls-16" d="M330.7,186.4s-2.62,2-11.42-1.89a19,19,0,0,0-.44-10c-1.73-5.63,10.93,5.44,10.93,5.44s-.17.67-.09,1.45a.78.78,0,0,1,0,.16,16.87,16.87,0,0,0,.35,1.92c0,.08.05.16.07.25C330.61,185.61,330.7,184.76,330.7,186.4Z" transform="translate(-0.32 -1)"/><path class="cls-21" d="M330.05,183.48h0c-6.3.81-9.74-6-9.84-6.18,4.32,6.28,9.49,4.26,9.49,4.26h0A16.87,16.87,0,0,0,330.05,183.48Z" transform="translate(-0.32 -1)"/><path class="cls-16" d="M330.67,184.83s2,3-.8,3.5-8.53-.11-11.66-3.91C318.21,184.42,326.72,183.68,330.67,184.83Z" transform="translate(-0.32 -1)"/><path class="cls-16" d="M356.33,243.67a4.92,4.92,0,0,1-1.55-.2s-.82-.47-1.43-.76a4.73,4.73,0,0,0-.48-.21,9.15,9.15,0,0,1-2.64-1.07,59.9,59.9,0,0,1-4.79-4.93l1.7-2.67,1.24-2.72s7.74.39,8.8.94l.29.17a11.11,11.11,0,0,1,1.66,1.65c.15.12,1.56,1.47,1.52,2a1.9,1.9,0,0,1-.9,1.62,4.53,4.53,0,0,1-.95,2.32,2.82,2.82,0,0,1-1.33,2.12S357.18,243.44,356.33,243.67Z" transform="translate(-0.32 -1)"/><path class="cls-59" d="M382.62,203.64s-5-.35-5.19.45a1.28,1.28,0,0,0,.27,1.2l-2.14.79s-1.12,1.33.65,2.16c0,0-1.17,1.13.64,1.73,0,0-.45,1.09.34,1.51a16.64,16.64,0,0,0,4,.52s.77-.26.59-1.53a1.77,1.77,0,0,0,.7-1.85,1.93,1.93,0,0,0,.39-1.93s1.43-1.61.23-3A4.26,4.26,0,0,0,382.62,203.64Z" transform="translate(-0.32 -1)"/><path class="cls-16" d="M374.33,202.21a17.12,17.12,0,0,1,4.16,3.48c.27.39.46.81.21,1.2s-1.15.53-2.47-.19a12.72,12.72,0,0,0-3.37-1S371.72,204.55,374.33,202.21Z" transform="translate(-0.32 -1)"/><path class="cls-26" d="M338.12,187a4.16,4.16,0,0,0-2.52-.9c6.29,9.28,5.86,28.41,5.82,28.51l-.2,1.64s1.59-.17,1.82-1.35C343.23,214.43,345,198.37,338.12,187Z" transform="translate(-0.32 -1)"/><path class="cls-26" d="M315.5,184.93a3.72,3.72,0,0,0-2.48.5c.12.15,11.34,15.25,6.56,26.95-4.38,10.73-16.49,13.5-16.61,13.52l.49,2.24c.54-.12,13.39-3,18.24-14.89C327,200.34,316,185.59,315.5,184.93Z" transform="translate(-0.32 -1)"/><path class="cls-57" d="M306.51,187c2.13-.34,8.61-.51,10.82,9a99,99,0,0,1,2,11.06c.11,1.76,3.45,14.46,4.65,15.4,1.51,1.18,9.43,3.67,10.16,4,2.54,1.15,14.69,4.26,14.69,4.26L348,240s-26.68-6.44-29.58-8c-1.91-1-4.7-2.84-7.13-7.92-2.67-5.58-8.65-17.53-8.74-18.67S297,188.48,306.51,187Z" transform="translate(-0.32 -1)"/></svg>